<svg width="200" height="43" viewBox="0 0 200 43" fill="none" xmlns="http://www.w3.org/2000/svg">
<g clip-path="url(#clip0_38_900)">
<path d="M63.1407 3.28747C64.3067 3.88788 65.2069 4.74199 65.8415 5.85148C66.4761 6.96098 66.7942 8.24806 66.7942 9.71273C66.7942 11.1774 66.4761 12.4577 65.8415 13.5537C65.2052 14.6496 64.305 15.497 63.1407 16.0974C61.9748 16.6978 60.6245 16.9972 59.088 16.9972H53.9775V2.3877H59.088C60.6228 2.3877 61.9748 2.68875 63.1407 3.28747ZM62.5434 13.2509C63.381 12.4137 63.799 11.2349 63.799 9.71442C63.799 8.19394 63.381 7.00326 62.5434 6.14577C61.7058 5.28828 60.5195 4.85869 58.983 4.85869H56.9101V14.5076H58.983C60.5179 14.5076 61.7058 14.0898 62.5434 13.2526V13.2509Z" fill="#344597"/>
<path d="M69.1934 3.52809C68.8516 3.19998 68.6807 2.79237 68.6807 2.30359C68.6807 1.8148 68.8516 1.4072 69.1934 1.07908C69.5352 0.75097 69.965 0.586914 70.4812 0.586914C70.9973 0.586914 71.4271 0.75097 71.7689 1.07908C72.1107 1.4072 72.2816 1.8148 72.2816 2.30359C72.2816 2.79237 72.1107 3.19998 71.7689 3.52809C71.4271 3.8562 70.9973 4.02026 70.4812 4.02026C69.965 4.02026 69.5352 3.8562 69.1934 3.52809ZM71.9263 5.40205V16.9976H68.9937V5.40205H71.9263Z" fill="#344597"/>
<path d="M81.643 5.72633C82.2996 6.06798 82.8157 6.5111 83.1931 7.0557V5.4016H86.1459V17.08C86.1459 18.154 85.9293 19.113 85.4961 19.9586C85.0629 20.8026 84.4148 21.4724 83.5484 21.9679C82.682 22.4635 81.6363 22.7104 80.4077 22.7104C78.7595 22.7104 77.4092 22.3265 76.3549 21.5586C75.3007 20.7908 74.7034 19.7439 74.5646 18.4196H77.4752C77.6291 18.9489 77.9608 19.3718 78.4702 19.6863C78.9795 20.0009 79.5972 20.1565 80.3231 20.1565C81.1743 20.1565 81.8664 19.9011 82.396 19.3921C82.9257 18.883 83.1914 18.1117 83.1914 17.08V15.2805C82.814 15.8251 82.2945 16.2784 81.6312 16.6403C80.9678 17.0022 80.2097 17.1849 79.3586 17.1849C78.3805 17.1849 77.487 16.9346 76.6781 16.4323C75.8676 15.93 75.2296 15.2213 74.7626 14.308C74.2955 13.3947 74.062 12.3444 74.062 11.1588C74.062 9.97319 74.2955 8.94657 74.7626 8.04003C75.2296 7.1335 75.8659 6.43499 76.668 5.9462C77.4701 5.45741 78.3669 5.21387 79.3586 5.21387C80.2233 5.21387 80.9848 5.38469 81.6413 5.72633H81.643ZM82.7734 9.36771C82.4942 8.85862 82.1168 8.46793 81.643 8.19563C81.1692 7.92333 80.6582 7.78803 80.115 7.78803C79.5718 7.78803 79.0675 7.92164 78.6072 8.18549C78.147 8.45102 77.773 8.83833 77.487 9.34741C77.201 9.85649 77.0572 10.4603 77.0572 11.1588C77.0572 11.8573 77.201 12.4662 77.487 12.9905C77.773 13.5131 78.1503 13.9156 78.6174 14.1947C79.0844 14.4738 79.5836 14.6141 80.115 14.6141C80.6463 14.6141 81.1692 14.4788 81.643 14.2065C82.1168 13.9342 82.4942 13.5435 82.7734 13.0345C83.0526 12.5254 83.1914 11.9148 83.1914 11.2028C83.1914 10.4907 83.0509 9.88017 82.7734 9.37109V9.36771Z" fill="#344597"/>
<path d="M89.2124 3.52809C88.8706 3.19998 88.6997 2.79237 88.6997 2.30359C88.6997 1.8148 88.8706 1.4072 89.2124 1.07908C89.5543 0.75097 89.9841 0.586914 90.5002 0.586914C91.0163 0.586914 91.4461 0.75097 91.788 1.07908C92.1298 1.4072 92.3007 1.8148 92.3007 2.30359C92.3007 2.79237 92.1298 3.19998 91.788 3.52809C91.4461 3.8562 91.0163 4.02026 90.5002 4.02026C89.9841 4.02026 89.5543 3.8562 89.2124 3.52809ZM91.9453 5.40205V16.9976H89.0128V5.40205H91.9453Z" fill="#344597"/>
<path d="M98.249 7.80838V13.4184C98.249 13.8091 98.3437 14.0916 98.5316 14.2658C98.7194 14.44 99.0375 14.5279 99.4843 14.5279H100.845V16.9972H99.002C96.5314 16.9972 95.2961 15.7981 95.2961 13.3964V7.80838H93.9136V5.40165H95.2961V2.5332H98.249V5.39996H100.846V7.80669H98.249V7.80838Z" fill="#344597"/>
<path d="M102.907 8.03906C103.374 7.13252 104.01 6.43401 104.813 5.94523C105.615 5.45644 106.511 5.21289 107.503 5.21289C108.368 5.21289 109.126 5.38709 109.776 5.7355C110.426 6.08391 110.945 6.52365 111.336 7.05472V5.40063H114.289V16.9962H111.336V15.3015C110.959 15.8461 110.439 16.296 109.776 16.6512C109.112 17.0063 108.348 17.1856 107.483 17.1856C106.505 17.1856 105.615 16.9353 104.813 16.433C104.009 15.9307 103.374 15.222 102.907 14.3087C102.44 13.3954 102.207 12.3451 102.207 11.1595C102.207 9.97391 102.44 8.94729 102.907 8.04075V8.03906ZM110.918 9.36842C110.639 8.85934 110.261 8.46865 109.788 8.19635C109.314 7.92405 108.803 7.78875 108.26 7.78875C107.716 7.78875 107.212 7.92236 106.752 8.1862C106.291 8.45174 105.918 8.83905 105.632 9.34813C105.346 9.85721 105.202 10.461 105.202 11.1595C105.202 11.858 105.346 12.4669 105.632 12.9912C105.918 13.5138 106.295 13.9163 106.762 14.1954C107.229 14.4745 107.728 14.6148 108.26 14.6148C108.791 14.6148 109.314 14.4795 109.788 14.2072C110.261 13.9349 110.639 13.5443 110.918 13.0352C111.197 12.5261 111.336 11.9155 111.336 11.2035C111.336 10.4914 111.195 9.88089 110.918 9.37181V9.36842Z" fill="#344597"/>
<path d="M120.09 1.50879V16.9977H117.157V1.50879H120.09Z" fill="#344597"/>
<path d="M133.682 12.0776H125.2C125.27 12.9148 125.563 13.571 126.08 14.0446C126.597 14.5199 127.233 14.7567 127.986 14.7567C129.074 14.7567 129.849 14.2899 130.311 13.3546H133.474C133.139 14.4708 132.496 15.3892 131.548 16.1063C130.599 16.8251 129.433 17.1837 128.05 17.1837C126.933 17.1837 125.932 16.9367 125.045 16.4412C124.158 15.9456 123.468 15.2454 122.972 14.3372C122.476 13.4307 122.229 12.3838 122.229 11.1982C122.229 10.0125 122.473 8.94534 122.962 8.03711C123.451 7.13057 124.134 6.43206 125.014 5.94327C125.894 5.45449 126.906 5.21094 128.05 5.21094C129.194 5.21094 130.14 5.44772 131.013 5.92298C131.886 6.39823 132.563 7.07137 133.044 7.94239C133.526 8.8151 133.766 9.81636 133.766 10.9461C133.766 11.3656 133.738 11.7411 133.682 12.0759V12.0776ZM130.729 10.1106C130.715 9.35632 130.443 8.75422 129.912 8.30095C129.38 7.84768 128.732 7.62104 127.964 7.62104C127.238 7.62104 126.627 7.84091 126.131 8.28065C125.635 8.72039 125.332 9.33095 125.221 10.1123H130.729V10.1106Z" fill="#344597"/>
<path d="M64.0831 34.2218C63.7125 34.905 63.1338 35.4564 62.3452 35.8759C61.5566 36.2936 60.5616 36.5033 59.3619 36.5033H56.9116V42.1134H53.979V27.5039H59.3602C60.4906 27.5039 61.4551 27.7001 62.2504 28.0891C63.0458 28.4798 63.6431 29.0176 64.0408 29.7009C64.4384 30.3842 64.6381 31.1588 64.6381 32.0248C64.6381 32.8061 64.452 33.5385 64.0831 34.2218ZM61.0354 33.5841C61.4263 33.2137 61.6226 32.6945 61.6226 32.0248C61.6226 30.6007 60.8273 29.8903 59.2349 29.8903H56.9099V34.1389H59.2349C60.0438 34.1389 60.6445 33.9545 61.0354 33.5841Z" fill="#344597"/>
<path d="M66.6583 33.1543C67.1254 32.2478 67.7616 31.5492 68.5637 31.0605C69.3658 30.5717 70.2627 30.3281 71.2543 30.3281C72.119 30.3281 72.8771 30.5023 73.5269 30.8507C74.1767 31.1991 74.6962 31.6389 75.0871 32.17V30.5159H78.04V42.1114H75.0871V40.4167C74.7098 40.9613 74.1903 41.4112 73.5269 41.7664C72.8636 42.1216 72.0987 42.3009 71.234 42.3009C70.2559 42.3009 69.3658 42.0505 68.5637 41.5482C67.7599 41.0459 67.1254 40.3373 66.6583 39.424C66.1896 38.5106 65.9561 37.4603 65.9561 36.2747C65.9561 35.0891 66.1896 34.0625 66.6583 33.156V33.1543ZM74.6675 34.4837C74.3882 33.9746 74.0109 33.5839 73.5371 33.3116C73.0616 33.0393 72.5522 32.904 72.009 32.904C71.4658 32.904 70.9616 33.0376 70.5013 33.3014C70.041 33.567 69.667 33.9543 69.3811 34.4634C69.0951 34.9724 68.9512 35.5762 68.9512 36.2747C68.9512 36.9733 69.0951 37.5821 69.3811 38.1064C69.667 38.629 70.0444 39.0316 70.5114 39.3106C70.9785 39.5897 71.4777 39.7301 72.009 39.7301C72.5404 39.7301 73.0633 39.5948 73.5371 39.3225C74.0109 39.0502 74.3882 38.6595 74.6675 38.1504C74.9467 37.6413 75.0871 37.0308 75.0871 36.3187C75.0871 35.6067 74.9467 34.9961 74.6675 34.487V34.4837Z" fill="#344597"/>
<path d="M84.3237 32.9248V38.5349C84.3237 38.9256 84.4184 39.208 84.6063 39.3822C84.7941 39.5565 85.1122 39.6444 85.559 39.6444H86.9195V42.1137H85.0767C82.6061 42.1137 81.3708 40.9146 81.3708 38.5129V32.9248H79.9883V30.5181H81.3708V27.6514H84.3237V30.5181H86.9195V32.9248H84.3237Z" fill="#344597"/>
<path d="M89.2325 28.6443C88.8906 28.3162 88.7197 27.9086 88.7197 27.4198C88.7197 26.931 88.8906 26.5234 89.2325 26.1953C89.5743 25.8672 90.0041 25.7031 90.5202 25.7031C91.0363 25.7031 91.4661 25.8672 91.808 26.1953C92.1498 26.5234 92.3207 26.931 92.3207 27.4198C92.3207 27.9086 92.1498 28.3162 91.808 28.6443C91.4661 28.9724 91.0363 29.1365 90.5202 29.1365C90.0041 29.1365 89.5743 28.9724 89.2325 28.6443ZM91.9653 30.5183V42.1138H89.0328V30.5183H91.9653Z" fill="#344597"/>
<path d="M105.557 37.1948H97.076C97.1454 38.032 97.4381 38.6882 97.9559 39.1618C98.472 39.6371 99.1083 39.8738 99.8613 39.8738C100.949 39.8738 101.724 39.407 102.186 38.4717H105.349C105.014 39.588 104.371 40.5064 103.423 41.2235C102.474 41.9423 101.308 42.3009 99.9256 42.3009C98.8088 42.3009 97.807 42.0539 96.9203 41.5584C96.0336 41.0628 95.3432 40.3626 94.8474 39.4544C94.3516 38.5479 94.1045 37.5009 94.1045 36.3153C94.1045 35.1297 94.3482 34.0625 94.8372 33.1543C95.3263 32.2478 96.0099 31.5492 96.8898 31.0605C97.7698 30.5717 98.7817 30.3281 99.9256 30.3281C101.07 30.3281 102.015 30.5649 102.889 31.0402C103.762 31.5154 104.439 32.1886 104.919 33.0596C105.402 33.9323 105.642 34.9335 105.642 36.0633C105.642 36.4828 105.613 36.8582 105.559 37.1931L105.557 37.1948ZM102.604 35.2278C102.591 34.4735 102.318 33.8714 101.787 33.4181C101.256 32.9649 100.608 32.7382 99.8393 32.7382C99.1134 32.7382 98.5025 32.9581 98.0067 33.3978C97.5109 33.8376 97.208 34.4481 97.0963 35.2295H102.604V35.2278Z" fill="#344597"/>
<path d="M117.557 31.6577C118.408 32.5304 118.834 33.7482 118.834 35.3092V42.1116H115.902V35.7067C115.902 34.7849 115.672 34.078 115.211 33.5824C114.751 33.0869 114.123 32.8399 113.326 32.8399C112.529 32.8399 111.878 33.0885 111.411 33.5824C110.944 34.078 110.708 34.7866 110.708 35.7067V42.1116H107.776V30.5161H110.708V31.9604C111.099 31.4581 111.599 31.0641 112.206 30.7782C112.814 30.4924 113.48 30.3486 114.206 30.3486C115.589 30.3486 116.706 30.785 117.557 31.656V31.6577Z" fill="#344597"/>
<path d="M125.033 32.9249V38.5349C125.033 38.9256 125.127 39.208 125.315 39.3822C125.503 39.5565 125.821 39.6444 126.268 39.6444H127.628V42.1137H125.786C123.315 42.1137 122.08 40.9146 122.08 38.5129V32.9249H120.697V30.5181H122.08V27.6514H125.033V30.5181H127.628V32.9249H125.033Z" fill="#344597"/>
<path d="M140.445 37.1948H131.964C132.033 38.032 132.326 38.6882 132.844 39.1618C133.36 39.6371 133.996 39.8738 134.749 39.8738C135.839 39.8738 136.612 39.407 137.074 38.4717H140.237C139.902 39.588 139.259 40.5064 138.31 41.2235C137.36 41.9423 136.194 42.3009 134.812 42.3009C133.695 42.3009 132.693 42.0539 131.807 41.5584C130.92 41.0628 130.229 40.3626 129.734 39.4544C129.238 38.5479 128.991 37.5009 128.991 36.3153C128.991 35.1297 129.234 34.0625 129.723 33.1543C130.212 32.2478 130.896 31.5492 131.776 31.0605C132.656 30.5717 133.668 30.3281 134.812 30.3281C135.956 30.3281 136.902 30.5649 137.775 31.0402C138.646 31.5154 139.325 32.1886 139.806 33.0596C140.288 33.9323 140.528 34.9335 140.528 36.0633C140.528 36.4828 140.499 36.8582 140.443 37.1931L140.445 37.1948ZM137.492 35.2278C137.479 34.4735 137.206 33.8714 136.675 33.4181C136.144 32.9649 135.495 32.7382 134.727 32.7382C134.001 32.7382 133.39 32.9581 132.895 33.3978C132.399 33.8376 132.096 34.4481 131.984 35.2295H137.492V35.2278Z" fill="#344597"/>
<path d="M152.443 31.6577C153.294 32.5304 153.721 33.7482 153.721 35.3092V42.1116H150.788V35.7067C150.788 34.7849 150.558 34.078 150.098 33.5824C149.637 33.0869 149.008 32.8399 148.212 32.8399C147.417 32.8399 146.764 33.0885 146.297 33.5824C145.828 34.078 145.595 34.7866 145.595 35.7067V42.1116H142.662V30.5161H145.595V31.9604C145.986 31.4581 146.485 31.0641 147.092 30.7782C147.7 30.4924 148.366 30.3486 149.092 30.3486C150.475 30.3486 151.592 30.785 152.443 31.656V31.6577Z" fill="#344597"/>
<path d="M165.384 30.9257C166.068 31.3096 166.603 31.8745 166.987 32.6204C167.371 33.3663 167.562 34.2627 167.562 35.3096V42.112H164.63V35.707C164.63 34.7853 164.399 34.0783 163.939 33.5828C163.479 33.0872 162.851 32.8403 162.054 32.8403C161.257 32.8403 160.606 33.0889 160.139 33.5828C159.671 34.0783 159.438 34.787 159.438 35.707V42.112H156.505V26.623H159.438V31.9608C159.815 31.4585 160.318 31.0644 160.946 30.7786C161.573 30.4927 162.272 30.349 163.041 30.349C163.921 30.349 164.702 30.5418 165.386 30.924L165.384 30.9257Z" fill="#344597"/>
<path d="M170.548 28.6443C170.206 28.3162 170.035 27.9086 170.035 27.4198C170.035 26.931 170.206 26.5234 170.548 26.1953C170.89 25.8672 171.32 25.7031 171.836 25.7031C172.352 25.7031 172.782 25.8672 173.123 26.1953C173.465 26.5234 173.636 26.931 173.636 27.4198C173.636 27.9086 173.465 28.3162 173.123 28.6443C172.782 28.9724 172.352 29.1365 171.836 29.1365C171.32 29.1365 170.89 28.9724 170.548 28.6443ZM173.281 30.5183V42.1138H170.348V30.5183H173.281Z" fill="#344597"/>
<path d="M179.102 26.625V42.114H176.169V26.625H179.102Z" fill="#344597"/>
<path d="M187.311 32.9244H185.28V42.1133H182.307V32.9244H180.987V30.5177H182.307V29.9325C182.307 28.5084 182.711 27.4632 183.522 26.7935C184.331 26.1237 185.552 25.8091 187.187 25.8514V28.3207C186.475 28.3072 185.979 28.4256 185.7 28.6759C185.42 28.9262 185.282 29.3812 185.282 30.0357V30.5177H187.312V32.9244H187.311Z" fill="#344597"/>
<path d="M199.917 37.1948H191.436C191.505 38.032 191.798 38.6882 192.316 39.1618C192.832 39.6371 193.468 39.8738 194.221 39.8738C195.311 39.8738 196.084 39.407 196.546 38.4717H199.709C199.374 39.588 198.731 40.5064 197.781 41.2235C196.832 41.9423 195.666 42.3009 194.284 42.3009C193.167 42.3009 192.165 42.0539 191.278 41.5584C190.392 41.0628 189.701 40.3626 189.205 39.4544C188.709 38.5479 188.462 37.5009 188.462 36.3153C188.462 35.1297 188.706 34.0625 189.195 33.1543C189.684 32.2478 190.368 31.5492 191.248 31.0605C192.128 30.5717 193.14 30.3281 194.284 30.3281C195.427 30.3281 196.373 30.5649 197.247 31.0402C198.118 31.5154 198.797 32.1886 199.277 33.0596C199.759 33.9323 200 34.9335 200 36.0633C200 36.4828 199.971 36.8582 199.915 37.1931L199.917 37.1948ZM196.964 35.2278C196.95 34.4735 196.678 33.8714 196.147 33.4181C195.615 32.9649 194.967 32.7382 194.199 32.7382C193.473 32.7382 192.862 32.9581 192.366 33.3978C191.87 33.8376 191.568 34.4481 191.456 35.2295H196.964V35.2278Z" fill="#344597"/>
<path d="M41.1729 21.1464C41.1729 32.8096 31.6848 42.2927 20.0223 42.2927H9.79296C8.7218 42.2927 7.84863 41.4183 7.84863 40.3494V37.1461C7.84863 36.0755 8.72349 35.2095 9.79296 35.2095H20.0223C27.7793 35.2095 34.086 28.8976 34.086 21.1464C34.086 13.3951 27.7793 7.08318 20.0223 7.08318H9.79296C8.7218 7.08318 7.84863 6.20877 7.84863 5.13987V1.93654C7.84863 0.865947 8.72349 0 9.79296 0H20.0138C31.6831 0 41.1712 9.48314 41.1712 21.1464H41.1729Z" fill="#344597"/>
<path d="M10.0719 32.9014H13.4529C14.4613 32.9014 15.2788 32.0843 15.2788 31.0765L15.2788 11.2138C15.2788 10.2059 14.4613 9.38887 13.4529 9.38887H10.0719C9.06354 9.38887 8.24607 10.2059 8.24607 11.2138L8.24607 31.0765C8.24607 32.0843 9.06354 32.9014 10.0719 32.9014Z" fill="#22B3A7"/>
<path d="M0 19.455L0 22.8343C0 23.8421 0.817472 24.6592 1.82587 24.6592H21.699C22.7074 24.6592 23.5248 23.8421 23.5248 22.8343V19.455C23.5248 18.4472 22.7074 17.6301 21.699 17.6301H1.82587C0.817472 17.6301 0 18.4472 0 19.455Z" fill="#22B3A7"/>
</g>
<defs>
<clipPath id="clip0_38_900">
<rect width="200" height="42.3012" fill="white"/>
</clipPath>
</defs>
</svg>
